<?xml version="1.0" encoding="UTF-8" standalone="no" ?>
<!DOCTYPE svg PUBLIC "-//W3C//DTD SVG 1.1//EN" "http://www.w3.org/Graphics/SVG/1.1/DTD/svg11.dtd">
<svg xmlns="http://www.w3.org/2000/svg" xmlns:xlink="http://www.w3.org/1999/xlink" version="1.1" width="500" height="500" viewBox="0 0 500 500" xml:space="preserve">
<desc>Created with Fabric.js 5.3.0</desc>
<defs>
</defs>
<g transform="matrix(0.8796141168 0 0 0.8796141168 250 250)" id="rb2RBEqZS-B3tQx51jGbg"  >
<path style="stroke: none; stroke-width: 1; stroke-dasharray: none; stroke-linecap: butt; stroke-dashoffset: 0; stroke-linejoin: miter; stroke-miterlimit: 4; fill: rgb(198,22,229); fill-rule: nonzero; opacity: 1;" vector-effect="non-scaling-stroke"  transform=" translate(-256.0007462932, -256.0007462932)" d="M 211 7.3 C 205 1 196 -1.4 187.6 0.8 C 179.2 3 172.7 9.700000000000001 170.5 18.1 L 154.7 80.6 L 92.69999999999999 63.099999999999994 C 84.29999999999998 60.699999999999996 75.29999999999998 63.099999999999994 69.19999999999999 69.19999999999999 C 63.099999999999994 75.29999999999998 60.69999999999999 84.29999999999998 63.09999999999999 92.69999999999999 L 80.6 154.7 L 18.1 170.6 C 9.700000000000001 172.7 3.1000000000000014 179.29999999999998 0.8000000000000007 187.7 C -1.5 196.1 1 205 7.3 211 L 53.5 256 L 7.3 301 C 1 307 -1.4 316 0.8 324.4 C 3 332.79999999999995 9.700000000000001 339.29999999999995 18.1 341.5 L 80.6 357.3 L 63.099999999999994 419.3 C 60.699999999999996 427.7 63.099999999999994 436.7 69.19999999999999 442.8 C 75.29999999999998 448.90000000000003 84.29999999999998 451.3 92.69999999999999 448.90000000000003 L 154.7 431.40000000000003 L 170.5 493.90000000000003 C 172.6 502.3 179.2 508.90000000000003 187.6 511.20000000000005 C 196 513.5 204.9 511.00000000000006 211 504.80000000000007 L 256 458.6000000000001 L 301 504.80000000000007 C 307.1 511.00000000000006 316 513.5000000000001 324.4 511.20000000000005 C 332.79999999999995 508.9 339.29999999999995 502.30000000000007 341.5 493.90000000000003 L 357.3 431.40000000000003 L 419.3 448.90000000000003 C 427.7 451.3 436.7 448.90000000000003 442.8 442.8 C 448.90000000000003 436.7 451.3 427.7 448.90000000000003 419.3 L 431.40000000000003 357.3 L 493.90000000000003 341.5 C 502.3 339.4 508.90000000000003 332.8 511.20000000000005 324.4 C 513.5 315.99999999999994 511.00000000000006 307.09999999999997 504.80000000000007 301 L 458.6000000000001 256 L 504.80000000000007 211 C 511.00000000000006 204.9 513.5000000000001 196 511.20000000000005 187.6 C 508.9 179.2 502.30000000000007 172.7 493.90000000000003 170.5 L 431.40000000000003 154.7 L 448.90000000000003 92.69999999999999 C 451.3 84.29999999999998 448.90000000000003 75.29999999999998 442.8 69.19999999999999 C 436.7 63.099999999999994 427.7 60.69999999999999 419.3 63.09999999999999 L 357.3 80.6 L 341.4 18.1 C 339.29999999999995 9.700000000000001 332.7 3.1000000000000014 324.29999999999995 0.8000000000000007 C 315.8999999999999 -1.5 307 1 301 7.3 L 256 53.5 L 211 7.3 z" stroke-linecap="round" />
</g>
</svg>